<?xml version="1.0" standalone="no"?>
<!DOCTYPE svg PUBLIC "-//W3C//DTD SVG 20010904//EN"
 "http://www.w3.org/TR/2001/REC-SVG-20010904/DTD/svg10.dtd">
<svg version="1.0" xmlns="http://www.w3.org/2000/svg"
 width="725.000000pt" height="712.000000pt" viewBox="0 0 725.000000 712.000000"
 preserveAspectRatio="xMidYMid meet">
<metadata>
Created by potrace 1.16, written by Peter Selinger 2001-2019
</metadata>
<g transform="translate(0.000000,712.000000) scale(0.100000,-0.100000)"
fill="#166A3A" stroke="none">
<path d="M3937 7104 c-4 -4 -7 -23 -8 -43 l-1 -36 -9 33 c-11 37 -47 45 -56
12 -5 -17 -7 -18 -20 -4 -9 8 -25 14 -37 12 -17 -2 -21 -9 -19 -38 l1 -35 -14
28 c-18 33 -47 33 -52 -1 -3 -19 -5 -20 -18 -7 -8 8 -22 11 -30 8 -13 -5 -15
-15 -10 -52 l6 -46 -22 38 c-24 41 -30 44 -47 23 -8 -10 -9 -21 -1 -42 l11
-29 -25 24 c-26 25 -56 23 -56 -4 0 -9 -9 -15 -24 -15 -31 0 -40 -14 -26 -40
9 -16 8 -19 -6 -13 -11 4 -15 2 -11 -4 4 -6 -3 -8 -17 -6 -17 4 -28 -2 -40
-18 -16 -23 -16 -23 -16 -3 0 19 -6 21 -55 22 -53 0 -55 -1 -56 -26 0 -26 -1
-26 -9 -4 -12 28 -30 29 -37 1 -4 -14 -8 -17 -13 -8 -5 6 -16 9 -25 5 -13 -5
-16 -13 -11 -34 l7 -27 -19 24 c-23 29 -52 23 -53 -11 0 -13 -3 -17 -6 -10 -8
20 -31 14 -49 -14 -13 -19 -14 -28 -5 -37 10 -9 11 -8 6 8 -6 16 -5 17 4 5 13
-19 14 -60 1 -60 -5 0 -14 9 -20 20 -14 26 -50 27 -50 1 0 -11 5 -23 10 -26 6
-4 8 -10 5 -15 -3 -5 -19 -1 -35 8 -23 13 -32 14 -42 4 -9 -9 -5 -19 23 -49
l34 -36 -49 27 c-38 20 -51 24 -58 14 -12 -20 -5 -30 41 -65 50 -39 48 -40
-19 -13 -51 20 -70 19 -70 -3 0 -29 111 -88 190 -101 3 -1 11 -5 18 -9 6 -5
43 -5 81 -1 57 5 69 4 74 -10 4 -10 18 -16 40 -16 21 0 41 -8 52 -20 10 -11
28 -20 40 -20 11 0 26 -5 33 -12 7 -7 12 -9 12 -5 0 3 21 0 48 -8 26 -8 66
-15 90 -15 24 0 56 -7 72 -15 17 -9 57 -17 89 -20 86 -7 131 -28 161 -76 14
-22 48 -58 77 -80 75 -57 109 -132 85 -191 -4 -9 -34 -34 -67 -56 -76 -49
-162 -137 -176 -180 -8 -24 -15 -31 -27 -28 -39 12 -166 36 -191 36 -30 0 -81
45 -81 71 0 9 9 24 20 34 11 10 20 24 20 30 0 10 10 11 40 4 23 -5 48 -6 58
-1 27 14 145 45 165 44 9 0 17 4 17 10 0 6 3 9 6 6 3 -3 22 9 42 28 48 45 30
61 -35 32 -25 -11 -47 -18 -49 -15 -3 2 9 10 26 17 16 7 28 16 25 20 -3 4 2
13 10 20 20 16 19 40 0 40 -9 0 -34 -9 -56 -21 -42 -21 -43 -18 -5 34 18 24
18 29 6 37 -10 6 -21 3 -35 -9 -11 -10 -33 -27 -50 -37 l-30 -19 17 25 c37 52
51 84 39 88 -6 2 -9 8 -5 13 9 15 -18 10 -38 -8 -17 -16 -18 -15 -16 8 2 18
-2 25 -17 27 -16 2 -26 -8 -42 -40 l-22 -43 6 57 c6 64 -3 80 -52 92 -23 6
-32 3 -46 -15 l-17 -23 5 28 c4 18 1 31 -8 36 -15 10 -39 -6 -39 -26 0 -7 -4
-16 -10 -19 -6 -4 -7 5 -4 23 6 31 -5 45 -37 47 -11 1 -15 -4 -11 -14 3 -9 -4
-5 -15 8 -20 25 -43 22 -43 -5 0 -8 -4 -14 -10 -14 -5 0 -10 10 -10 21 0 17
-4 20 -22 15 -13 -3 -26 -6 -30 -6 -5 0 -8 -15 -9 -32 -1 -33 -1 -33 -10 7 -5
22 -14 44 -19 49 -13 13 -40 -12 -41 -38 0 -20 -1 -20 -10 3 -7 18 -14 22 -34
17 -14 -4 -25 -2 -25 4 0 5 -5 10 -11 10 -5 0 -7 -4 -4 -10 6 -9 -16 -15 -39
-11 -5 1 -6 -5 -3 -13 5 -13 3 -14 -13 -4 -22 14 -46 -2 -53 -35 l-4 -22 -8
23 c-10 29 -33 28 -45 -3 -5 -14 -12 -25 -15 -25 -4 0 -3 5 0 11 5 7 -3 9 -21
7 -25 -3 -29 -7 -27 -30 1 -22 -3 -28 -18 -28 -10 0 -19 5 -19 10 0 19 -29 10
-41 -12 l-11 -21 -17 22 c-27 35 -51 18 -52 -38 -1 -25 -3 -37 -6 -26 -10 48
-26 76 -42 73 -12 -3 -16 -14 -14 -43 1 -38 1 -38 -9 -12 -5 15 -13 27 -18 27
-21 0 -40 -13 -40 -28 0 -13 -3 -12 -14 3 -13 18 -16 19 -33 4 -10 -9 -25 -19
-33 -22 -9 -3 -10 -6 -2 -6 6 -1 12 -5 12 -11 0 -5 -6 -7 -14 -4 -20 8 -29
-12 -16 -37 13 -24 5 -38 -12 -21 -11 11 -48 17 -48 8 0 -3 5 -17 10 -31 l10
-27 -26 21 c-48 37 -60 4 -16 -42 l27 -29 -48 23 c-36 18 -50 20 -59 11 -16
-16 43 -77 89 -93 19 -6 32 -13 30 -15 -7 -7 -117 38 -112 46 2 4 -6 5 -20 3
-40 -8 -38 -31 4 -58 22 -13 51 -27 65 -31 14 -3 26 -9 26 -13 0 -4 33 -13 74
-20 76 -12 222 -6 232 10 3 5 14 9 25 9 10 0 19 6 19 13 0 9 2 9 9 -1 5 -8 28
-13 59 -14 37 0 56 -5 73 -21 13 -12 32 -22 43 -22 11 0 21 -6 23 -12 10 -28
-99 -2 -139 34 l-21 18 19 -29 c18 -29 18 -29 -1 -18 -11 5 -28 19 -38 30 -11
12 -26 18 -38 15 -20 -5 -19 -6 2 -26 28 -27 10 -33 -31 -12 -18 9 -35 13 -38
9 -4 -4 -1 -9 6 -11 7 -3 18 -11 26 -18 7 -7 26 -15 42 -16 16 -2 34 -7 41
-12 7 -5 52 -10 101 -12 49 -1 98 -8 110 -14 11 -6 63 -11 115 -11 88 0 98 -2
158 -34 62 -33 70 -35 184 -37 66 -1 131 -6 145 -10 14 -5 51 -15 82 -24 61
-18 108 -48 108 -70 0 -38 48 -99 118 -148 138 -98 167 -123 197 -178 78 -142
2 -321 -173 -405 -81 -39 -85 -40 -172 -72 -164 -60 -282 -108 -342 -138 -36
-18 -68 -30 -70 -25 -2 5 -32 23 -67 41 -107 53 -131 93 -97 159 17 32 73 56
156 67 59 7 139 43 180 80 23 20 30 22 75 13 27 -5 57 -6 65 -3 8 4 28 8 44 9
60 5 146 28 163 44 10 9 35 27 56 40 33 20 37 26 25 38 -12 11 -21 11 -58 -2
-24 -8 -45 -13 -47 -11 -2 2 12 9 32 16 41 14 61 47 40 68 -11 12 -17 12 -36
-1 -13 -8 -35 -18 -49 -22 l-25 -7 29 30 c18 19 26 37 22 47 -5 14 -12 12 -53
-11 l-48 -27 28 29 c15 17 27 35 27 41 0 22 -21 25 -41 7 -19 -17 -20 -17 -13
1 5 11 4 16 -3 12 -5 -3 -9 4 -9 16 1 18 -4 22 -26 22 -19 -1 -28 4 -28 15 0
27 -12 31 -37 15 -21 -14 -23 -14 -23 0 0 25 -31 31 -43 9 -10 -17 -12 -17
-17 10 -6 35 -22 43 -43 22 -13 -14 -16 -14 -21 -1 -7 20 -26 19 -41 -2 -11
-15 -13 -15 -19 5 -8 25 -31 29 -40 7 -3 -8 -16 -15 -28 -15 -13 0 -18 3 -12
8 6 4 14 17 18 30 10 30 -16 39 -52 17 -15 -10 -21 -12 -14 -4 17 18 15 49 -2
49 -8 0 -18 -4 -21 -10 -11 -18 -23 -11 -18 10 6 23 -15 27 -36 8 -10 -11 -11
-10 -6 3 3 9 -1 22 -11 30 -14 12 -19 10 -35 -10 -11 -13 -19 -18 -19 -12 0 6
-10 21 -22 33 l-21 21 -18 -21 c-17 -21 -36 -31 -25 -13 9 14 -4 41 -19 41 -7
0 -20 -10 -28 -22 -12 -17 -16 -19 -16 -7 -2 44 -60 41 -62 -4 -1 -17 -3 -14
-10 10 -5 18 -14 35 -20 38 -15 10 -39 -14 -40 -39 0 -21 0 -21 -9 2 -10 24
-39 29 -58 10 -9 -9 -12 -9 -12 1 0 24 -44 7 -50 -19 l-6 -25 -12 23 c-17 30
-40 28 -48 -4 -6 -22 -8 -24 -16 -10 -12 21 -48 21 -48 0 0 -8 -5 -12 -11 -9
-6 4 -13 -2 -16 -14 -3 -11 -9 -18 -14 -15 -5 3 -7 9 -5 13 3 4 -6 8 -19 9
-13 1 -26 -5 -29 -14 -5 -14 -8 -14 -23 1 -16 16 -17 16 -29 0 -8 -11 -20 -15
-33 -10 -22 7 -42 -19 -33 -45 4 -12 1 -11 -15 3 -24 21 -30 21 -49 3 -7 -8
-22 -12 -32 -9 -27 7 -35 -23 -15 -55 l17 -27 -32 29 c-26 24 -34 27 -47 16
-13 -11 -12 -16 6 -41 23 -32 15 -37 -20 -13 -30 21 -52 4 -33 -26 11 -17 10
-20 -7 -20 -11 0 -21 -6 -24 -12 -3 -10 -9 -8 -24 5 -24 21 -33 22 -33 3 0
-16 -37 -28 -46 -15 -11 18 -46 9 -51 -12 -6 -20 -7 -21 -19 -5 -17 24 -47 16
-54 -14 -5 -21 -7 -22 -13 -7 -8 20 -43 23 -50 3 -3 -9 -15 -12 -31 -9 -22 5
-26 2 -27 -18 0 -13 -3 -18 -6 -11 -2 6 -14 12 -25 12 -15 0 -19 -5 -15 -19 3
-12 -1 -22 -9 -25 -8 -3 -14 -1 -14 4 0 13 -27 13 -35 -1 -4 -5 1 -20 11 -32
10 -12 12 -16 4 -9 -8 6 -22 12 -31 12 -25 0 -32 -30 -12 -47 16 -13 16 -14 1
-9 -13 4 -17 -3 -20 -32 l-3 -37 -18 33 c-20 36 -42 38 -41 3 0 -11 -3 -21 -8
-21 -5 0 -6 -6 -2 -12 4 -7 -5 -2 -19 11 l-26 24 -11 -27 c-8 -22 -14 -25 -36
-20 -21 5 -25 3 -22 -12 2 -14 -2 -18 -19 -16 -36 5 -35 -15 2 -52 36 -36 25
-37 -32 -3 -18 10 -37 16 -42 13 -15 -10 -10 -68 5 -62 7 3 18 -1 24 -9 6 -7
22 -16 37 -20 14 -3 23 -8 20 -11 -3 -3 -31 4 -63 15 -67 26 -97 22 -70 -8 10
-11 30 -25 46 -31 17 -7 27 -17 24 -25 -10 -25 118 -56 227 -56 73 1 100 -3
109 -14 7 -8 28 -17 49 -20 20 -3 44 -10 54 -16 31 -17 189 -22 279 -9 77 11
93 10 139 -5 38 -13 68 -16 115 -11 54 5 70 3 105 -15 40 -20 47 -20 138 -9
53 7 123 16 156 20 119 15 251 -19 376 -98 67 -42 74 -54 54 -85 -31 -47 -58
-161 -59 -242 0 -90 28 -198 66 -255 32 -47 120 -118 292 -235 458 -311 492
-339 541 -436 36 -69 35 -178 0 -254 -35 -72 -122 -152 -211 -191 l-69 -31 0
26 c-1 14 -2 47 -3 72 l-2 46 -82 54 c-105 68 -361 245 -453 314 -210 156
-276 179 -542 184 -95 2 -144 -3 -248 -24 -136 -28 -198 -28 -243 1 -12 8 -43
17 -68 19 -50 5 -108 35 -118 61 -8 21 8 47 41 70 22 14 48 18 118 19 67 1 99
6 125 20 19 10 55 20 78 22 24 2 52 8 62 13 10 6 30 10 44 10 13 0 37 11 53
24 26 22 32 23 93 14 81 -12 167 -4 189 16 10 9 30 16 44 16 15 0 27 5 27 11
0 5 15 16 33 24 41 19 67 39 67 54 0 16 -33 14 -97 -9 -74 -26 -91 -25 -33 1
54 25 100 76 80 89 -8 5 -29 1 -51 -11 -52 -26 -55 -24 -25 12 14 17 26 34 26
39 0 18 -29 17 -56 -1 -41 -26 -47 -24 -29 12 9 17 14 38 11 46 -6 13 -9 13
-31 -1 -30 -20 -36 -20 -29 -3 3 8 -2 20 -11 27 -8 7 -15 18 -15 25 0 24 -30
40 -50 27 -15 -9 -19 -7 -24 14 -9 33 -36 30 -63 -7 l-21 -32 5 42 c4 32 2 42
-11 47 -9 3 -23 1 -30 -5 -11 -10 -17 -8 -25 6 -10 17 -12 17 -25 1 -17 -23
-26 -23 -26 2 0 26 -25 26 -44 -1 l-14 -21 -11 21 c-14 25 -27 26 -48 5 -14
-14 -17 -13 -34 13 -13 20 -19 23 -19 11 0 -9 -5 -20 -10 -23 -7 -4 -9 2 -4
19 8 33 -16 44 -59 28 -24 -9 -28 -9 -19 0 7 7 12 21 12 31 0 15 -5 18 -24 15
-17 -4 -32 3 -51 24 -30 32 -43 35 -52 13 -5 -13 -8 -12 -20 5 -9 13 -21 19
-30 15 -9 -3 -25 3 -36 12 -15 13 -21 15 -24 6 -7 -19 -31 -16 -64 8 l-29 21
-15 -34 c-10 -24 -14 -27 -15 -13 -1 32 -17 52 -31 38 -6 -6 -17 -9 -24 -6 -7
2 -15 -4 -18 -14 -3 -14 -5 -12 -11 10 -11 36 -43 37 -52 1 -6 -22 -8 -24 -16
-10 -12 21 -34 21 -47 -1 -8 -14 -12 -15 -25 -4 -21 18 -46 7 -47 -21 l0 -23
-9 23 c-11 25 -45 30 -54 7 -4 -10 -14 -13 -36 -9 -28 6 -30 5 -30 -25 0 -19
-4 -30 -10 -26 -6 4 -8 11 -5 16 4 5 -4 9 -15 9 -13 0 -24 -8 -27 -19 -3 -13
-11 -17 -25 -13 -13 3 -26 -1 -33 -12 -11 -14 -13 -15 -19 -1 -7 19 -42 20
-53 1 -4 -7 -19 -13 -33 -12 -22 1 -25 -3 -23 -28 l2 -29 -21 22 c-18 20 -22
21 -35 8 -11 -11 -12 -19 -4 -35 9 -17 7 -21 -12 -26 -12 -3 -34 -6 -49 -6
-21 0 -28 -5 -28 -19 0 -23 -16 -36 -25 -21 -5 8 -11 7 -21 -1 -12 -9 -11 -15
6 -37 26 -32 20 -38 -20 -17 -25 13 -34 14 -46 4 -13 -10 -11 -16 12 -40 l26
-27 -23 3 c-13 2 -34 7 -46 10 -37 12 -42 -22 -7 -52 l29 -25 -27 7 c-24 6
-28 3 -34 -21 -6 -24 -8 -25 -19 -11 -16 23 -31 21 -48 -4 -9 -13 -17 -16 -22
-10 -3 6 -15 11 -26 11 -15 0 -19 -8 -21 -42 l-1 -43 -4 37 c-3 27 -10 39 -25
44 -25 7 -37 -9 -39 -51 -1 -31 -3 -28 -13 18 -10 41 -46 38 -47 -5 0 -30 -1
-31 -9 -10 -10 25 -40 30 -40 7 0 -13 -3 -13 -21 -3 -17 11 -22 10 -33 -4 -8
-11 -20 -15 -34 -11 -28 7 -36 -14 -22 -53 l10 -29 -26 29 c-21 24 -30 27 -43
19 -9 -6 -16 -22 -16 -36 1 -20 -2 -23 -12 -16 -19 17 -35 1 -22 -22 8 -15 7
-24 -2 -35 -10 -13 -14 -12 -30 2 -17 16 -19 15 -29 -10 -9 -24 -12 -25 -30
-14 -33 21 -42 -7 -17 -51 l21 -36 -36 28 c-20 15 -41 27 -47 27 -19 0 -23
-21 -6 -40 11 -12 13 -20 5 -25 -6 -3 -9 -1 -8 6 2 6 -3 14 -11 17 -9 3 -11 0
-6 -7 5 -9 1 -9 -14 1 -30 19 -45 0 -29 -38 7 -16 18 -30 23 -31 15 -3 90 -43
81 -43 -5 0 -37 10 -71 22 -35 11 -71 18 -80 14 -17 -6 -17 -7 0 -26 10 -11
41 -28 69 -39 28 -11 50 -24 49 -29 -1 -5 16 -16 38 -25 30 -12 67 -15 150
-13 60 2 112 0 115 -5 8 -13 64 -37 114 -48 59 -14 147 -14 207 -1 44 10 55 8
108 -16 102 -45 189 -43 315 6 120 47 258 41 339 -14 20 -13 65 -34 101 -46
94 -32 307 -34 475 -3 145 27 377 53 461 53 129 0 296 -43 392 -101 43 -27
229 -167 288 -218 23 -20 68 -57 101 -83 l60 -48 2 -87 c1 -48 4 -89 7 -92 7
-7 -163 -75 -501 -200 -421 -156 -531 -205 -556 -245 -25 -40 -57 -126 -65
-174 -13 -70 -15 -223 -5 -289 11 -71 -1 -110 -28 -94 -7 5 -30 0 -53 -11 -30
-15 -43 -17 -53 -8 -8 7 -20 10 -27 8 -7 -3 -26 1 -42 7 -47 20 -147 -19 -211
-82 -12 -13 -35 -23 -50 -23 -15 0 -41 -11 -57 -25 -16 -14 -34 -23 -39 -19
-5 3 -9 0 -9 -6 0 -6 -12 -5 -35 4 -19 8 -37 11 -40 6 -3 -5 -19 -11 -35 -15
-17 -4 -43 -17 -58 -29 -24 -20 -48 -24 -252 -40 -217 -17 -469 -42 -500 -51
-8 -2 -40 -7 -70 -10 -30 -4 -80 -13 -111 -21 -31 -8 -64 -14 -73 -14 -28 0
-126 -41 -151 -63 -24 -22 -24 -24 -14 -102 14 -109 41 -137 174 -177 40 -12
47 -16 22 -13 -45 7 -46 3 -16 -111 52 -201 110 -324 192 -408 37 -37 50 -58
48 -76 -3 -38 32 -76 99 -106 60 -27 64 -32 90 -117 14 -44 25 -51 135 -71
177 -34 779 -84 835 -69 14 3 53 32 87 65 l62 58 128 -7 c126 -7 1465 -11
1821 -5 l184 3 47 -44 c90 -85 70 -80 338 -67 131 6 245 13 253 15 8 3 67 9
130 15 152 14 350 48 375 64 11 8 31 41 43 75 23 59 26 63 86 90 66 30 96 63
96 109 0 19 11 39 36 63 80 75 158 241 189 399 23 119 35 148 61 154 37 10 94
46 105 68 6 11 13 55 16 98 l6 77 -34 26 c-102 77 -523 135 -1241 172 -107 6
-129 10 -144 26 -9 10 -25 19 -34 19 -9 0 -21 5 -27 11 -16 16 -64 18 -103 4
-39 -13 -60 -10 -60 10 0 20 -61 61 -101 69 -20 3 -49 2 -64 -4 -23 -9 -31 -7
-51 12 -50 50 -61 58 -77 58 -9 0 -18 4 -22 9 -3 6 -21 5 -44 -4 -22 -8 -56
-11 -80 -8 -28 4 -48 1 -66 -11 -25 -16 -26 -16 -54 17 -17 18 -50 44 -75 56
-38 20 -54 23 -97 17 -54 -7 -89 -21 -101 -39 -4 -7 -15 -5 -30 5 -17 11 -29
13 -41 6 -10 -5 -31 -6 -47 -3 -20 4 -30 3 -30 -5 0 -8 -4 -9 -12 -3 -7 5 -34
17 -59 27 -59 21 -121 75 -144 122 -26 54 -22 150 7 181 29 30 105 79 179 114
l59 28 0 -79 0 -80 65 0 c53 0 66 3 75 19 6 13 10 161 10 414 0 351 2 396 16
401 45 17 44 30 44 -393 0 -220 3 -406 6 -415 4 -11 19 -16 50 -16 l44 0 1
103 c1 152 7 164 115 210 49 21 124 51 166 67 43 16 97 38 120 49 24 10 77 31
118 45 147 53 215 92 248 141 18 28 55 62 94 87 170 110 298 145 503 134 66
-3 185 -9 265 -12 l145 -6 80 40 c148 75 234 79 466 23 52 -12 156 -5 209 14
48 17 124 12 265 -19 106 -23 225 -6 276 40 15 14 25 14 76 3 79 -16 161 -12
199 12 17 10 43 19 58 19 14 0 26 3 26 8 0 4 20 18 45 31 30 16 45 30 43 40
-2 10 -12 15 -23 13 -11 -2 -30 -5 -42 -5 -11 -1 -19 -5 -17 -9 6 -9 -44 -23
-52 -15 -3 2 10 14 29 26 18 11 42 29 52 40 17 19 17 21 0 27 -10 4 -37 -2
-64 -15 -25 -12 -37 -15 -27 -6 11 8 24 15 30 15 5 0 6 3 3 7 -4 3 -2 12 5 20
8 10 8 17 -1 26 -8 8 -18 7 -40 -6 -32 -19 -45 -13 -29 13 6 9 8 25 4 35 -6
17 -9 16 -33 -6 -14 -13 -23 -18 -19 -11 4 6 3 12 -2 12 -6 0 -8 8 -5 19 8 33
-25 34 -45 1 -12 -18 -22 -26 -30 -21 -10 6 -7 14 8 33 22 29 26 53 10 63 -6
4 -17 1 -25 -5 -12 -10 -17 -7 -25 14 -11 30 -17 32 -42 9 -15 -13 -18 -14
-18 -2 0 26 -21 39 -43 28 -14 -8 -18 -8 -13 0 12 19 -26 26 -39 7 -11 -15
-14 -14 -29 9 -20 31 -34 32 -45 3 -6 -18 -9 -19 -14 -5 -8 21 -46 22 -53 3
-3 -8 -12 -12 -20 -9 -11 4 -9 9 8 22 12 10 18 23 14 29 -9 16 -49 15 -64 0
-7 -7 -12 -8 -12 -2 0 15 21 33 34 30 6 -2 8 -1 4 1 -5 3 -8 11 -8 19 0 19
-35 18 -67 -3 l-27 -18 19 32 c15 26 17 35 7 45 -9 9 -21 3 -54 -27 -26 -24
-32 -28 -16 -10 20 23 24 35 18 51 -13 32 -29 38 -51 18 -18 -16 -19 -16 -19
9 0 29 -26 37 -48 15 -9 -9 -12 -7 -12 11 0 17 -5 22 -22 19 -15 -2 -26 -17
-40 -53 -10 -27 -15 -36 -11 -20 13 60 9 99 -11 103 -10 2 -23 -2 -27 -10 -6
-8 -12 -9 -16 -3 -14 18 -61 38 -73 30 -6 -4 -17 1 -25 11 -11 15 -16 16 -28
6 -13 -11 -19 -11 -37 0 -17 11 -22 11 -30 -2 -6 -10 -10 -11 -10 -2 0 7 -13
12 -30 12 -26 0 -30 -4 -31 -27 -1 -25 -2 -24 -8 7 -7 40 -36 53 -46 20 -6
-20 -7 -21 -21 -3 -13 16 -15 17 -27 2 -9 -13 -16 -14 -30 -5 -14 9 -21 7 -31
-6 -10 -13 -15 -15 -25 -5 -9 9 -16 9 -31 -1 -11 -7 -21 -8 -25 -2 -3 6 -16 5
-31 -2 -19 -9 -24 -17 -20 -32 5 -20 4 -20 -9 -2 -18 23 -45 14 -45 -15 0 -21
-1 -21 -18 -6 -20 18 -42 7 -42 -22 0 -12 -3 -12 -12 -3 -18 18 -36 14 -44
-10 l-8 -23 -6 24 c-7 32 -30 39 -37 13 -4 -18 -8 -19 -24 -9 -15 9 -23 9 -39
0 -12 -8 -21 -9 -25 -3 -3 6 -15 10 -26 10 -14 0 -19 -7 -19 -27 0 -25 -1 -26
-14 -8 -15 21 -46 14 -46 -10 0 -20 -10 -19 -25 2 -11 15 -15 15 -29 4 -9 -7
-16 -19 -16 -27 0 -8 -10 -12 -27 -11 -23 2 -28 -2 -28 -20 0 -29 -12 -38 -29
-24 -21 17 -39 4 -33 -25 5 -27 -16 -39 -33 -19 -16 19 -43 7 -37 -16 3 -11 1
-19 -5 -19 -5 0 -6 -5 -2 -11 4 -7 -1 -7 -16 1 -26 14 -46 0 -37 -24 4 -9 7
-20 7 -24 1 -4 11 -13 23 -20 22 -13 22 -13 -3 -8 -14 3 -35 9 -47 12 -17 5
-23 2 -23 -10 0 -18 51 -52 92 -61 17 -4 25 -11 22 -20 -9 -23 61 -38 163 -33
93 4 96 3 125 -24 20 -19 45 -30 78 -34 61 -8 74 -16 66 -42 -16 -48 -160 -90
-252 -73 -133 25 -321 9 -476 -39 -54 -17 -59 -17 -53 -2 14 37 17 192 5 258
-7 38 -31 110 -55 159 -49 106 -40 99 -336 290 -165 107 -194 129 -191 148 22
157 278 260 562 227 58 -7 153 -23 212 -36 159 -36 283 -29 378 22 42 22 54
24 190 21 131 -2 150 0 203 22 53 21 64 22 121 12 100 -17 160 -14 228 14 34
14 69 23 77 20 9 -2 47 -9 84 -14 78 -11 162 5 210 40 26 19 37 20 141 13 82
-5 119 -3 136 6 18 10 20 14 9 21 -9 7 2 8 32 3 40 -5 49 -3 61 14 7 11 30 28
51 38 23 11 37 25 37 36 0 23 -4 22 -75 -2 -79 -27 -86 -25 -33 10 59 39 74
58 61 71 -8 8 -18 7 -33 -1 -15 -8 -20 -8 -16 -1 4 6 3 11 -3 11 -5 0 -14 -6
-18 -14 -4 -7 -19 -19 -33 -26 -17 -8 -13 -2 13 20 41 35 51 67 17 56 -68 -21
-67 -21 -47 1 9 11 17 25 17 31 0 15 -23 15 -38 0 -12 -12 -17 -4 -24 36 -4
28 -25 31 -34 4 -7 -22 -7 -22 -14 -3 -4 11 -6 30 -4 42 5 29 -30 50 -52 32
-11 -9 -14 -8 -14 4 0 24 -40 43 -51 26 -5 -8 -9 -20 -9 -26 0 -7 -4 -13 -8
-13 -4 0 -6 16 -4 35 4 32 2 35 -22 35 -20 0 -27 -6 -33 -27 l-7 -28 -6 30
c-7 37 -37 46 -48 14 -8 -21 -9 -21 -15 9 -5 23 -12 32 -27 32 -11 0 -20 -3
-20 -7 0 -5 -13 -8 -29 -8 -24 0 -28 3 -20 17 21 39 4 46 -56 23 -16 -7 -15
-2 8 22 22 23 25 32 15 40 -19 15 -50 24 -43 13 3 -5 -3 -14 -14 -19 -28 -16
-35 -13 -17 5 20 19 20 35 2 60 -14 18 -16 17 -51 -21 -29 -31 -32 -33 -16 -9
l20 30 -33 31 c-37 34 -73 47 -80 29 -2 -6 -5 -3 -5 7 -1 19 -36 24 -47 5 -5
-7 -10 -4 -15 10 -11 29 -47 29 -59 0 -8 -21 -9 -20 -9 10 -1 36 -23 51 -46
32 -12 -10 -16 -9 -21 3 -8 22 -54 35 -86 26 -21 -5 -28 -4 -28 6 0 28 -24 28
-47 -1 l-23 -29 0 28 c0 15 -4 27 -9 27 -23 0 -41 -14 -41 -30 0 -11 -4 -22
-10 -25 -6 -4 -10 8 -10 30 0 32 -3 36 -22 33 -17 -2 -25 -12 -29 -38 -5 -29
-7 -31 -8 -8 -1 32 -38 49 -55 26 -8 -11 -15 -12 -27 -5 -9 6 -24 7 -35 2 -11
-4 -29 -7 -42 -6 -13 2 -25 -4 -28 -14 -6 -14 -8 -14 -24 0 -15 14 -19 14 -29
1 -7 -9 -10 -25 -6 -38 l7 -23 -17 23 c-20 28 -42 28 -50 1 -6 -19 -8 -19 -24
-4 -16 14 -20 14 -30 1 -7 -8 -19 -12 -27 -9 -10 3 -14 -2 -14 -18 0 -18 -3
-20 -12 -11 -21 21 -36 13 -42 -23 -8 -39 -21 -46 -31 -15 -8 25 -33 26 -42 3
-4 -10 -12 -24 -19 -31 -10 -10 -13 -7 -16 15 -4 39 -25 40 -41 1 -13 -33 -14
-33 -26 -10 -6 12 -21 22 -31 22 -16 0 -20 -7 -20 -32 -1 -30 -2 -31 -12 -13
-22 38 -58 41 -58 4 0 -20 -15 -26 -25 -9 -10 16 -33 0 -40 -27 -6 -24 -7 -25
-20 -7 -12 16 -17 17 -34 7 -12 -7 -32 -13 -46 -13 -18 0 -26 -7 -31 -27 -7
-25 -8 -25 -21 -7 -22 30 -49 6 -45 -40 4 -38 -7 -46 -28 -21 -23 27 -64 10
-42 -18 5 -7 12 -23 15 -36 l6 -24 -28 27 c-30 29 -61 34 -61 11 0 -14 -11
-19 -37 -16 -25 3 -23 -20 4 -56 l28 -36 -42 24 c-34 19 -45 21 -55 11 -9 -9
-5 -19 23 -48 25 -27 29 -35 14 -30 -50 18 -75 19 -75 2 0 -11 22 -27 58 -44
33 -16 57 -33 54 -40 -4 -12 1 -14 51 -17 15 -1 33 -7 39 -13 7 -7 38 -9 90
-5 72 5 81 4 102 -16 16 -15 34 -21 59 -19 19 1 42 -4 50 -10 8 -7 37 -14 63
-16 57 -3 79 -25 52 -53 -15 -15 -42 -17 -210 -18 -170 0 -203 -3 -271 -23
-122 -35 -194 -73 -297 -154 l-94 -75 -71 43 c-129 78 -185 160 -185 267 0
138 60 215 236 305 56 28 104 49 106 46 3 -2 11 2 18 11 7 8 20 15 29 15 9 0
25 6 36 14 11 7 43 25 70 41 159 87 186 116 231 240 23 65 46 89 118 126 104
53 192 70 356 68 80 0 154 1 165 4 47 12 112 42 133 61 21 18 33 20 95 16 116
-7 197 -2 269 19 54 15 75 17 110 9 45 -10 158 -4 219 12 20 6 48 19 63 31 20
16 35 19 64 15 20 -3 60 -6 87 -6 28 0 63 0 79 0 34 -1 96 21 96 33 0 4 4 6 9
2 5 -3 13 -1 16 5 4 6 27 20 51 32 31 14 44 26 41 37 -4 18 -3 18 -77 -3 l-55
-16 30 24 c80 63 81 64 68 77 -11 11 -22 9 -59 -9 -26 -13 -49 -20 -52 -17 -3
3 3 8 15 11 26 7 49 52 33 68 -7 7 -16 7 -31 -2 -12 -8 -18 -9 -14 -3 3 6 2
11 -4 11 -6 0 -8 7 -5 15 8 20 -22 31 -41 15 -16 -14 -19 -7 -15 38 1 15 -4
22 -16 22 -10 0 -29 -10 -42 -22 l-25 -23 12 22 c18 35 14 63 -9 63 -11 0 -20
-3 -20 -7 0 -5 -12 -26 -26 -48 -14 -22 -22 -31 -19 -20 21 60 24 90 10 105
-13 12 -17 12 -30 -5 -14 -20 -15 -20 -21 3 -7 25 -41 30 -51 7 -5 -13 -8 -12
-20 5 -14 20 -16 20 -34 4 -21 -19 -61 -12 -41 8 18 18 14 38 -7 38 -14 0 -18
5 -14 19 6 23 -13 37 -32 21 -11 -9 -16 -7 -25 9 -13 25 -33 27 -50 6 -19 -23
-29 -18 -27 12 3 39 -23 40 -50 1 l-22 -32 2 29 c3 38 -29 47 -42 13 -9 -20
-10 -19 -10 15 -1 30 -5 37 -21 37 -12 0 -24 -10 -30 -22 -5 -13 -9 -17 -9
-11 -1 16 -70 46 -88 39 -7 -3 -13 -1 -13 4 0 21 -39 10 -43 -12 -4 -22 -4
-22 -6 -2 -1 22 -26 39 -42 28 -5 -3 -10 -20 -10 -37 -1 -22 -3 -25 -6 -10 -9
46 -53 55 -53 10 l0 -21 -16 22 c-16 23 -44 30 -44 11 0 -8 -5 -8 -15 1 -22
18 -45 5 -45 -27 l0 -27 -16 22 c-8 12 -22 22 -30 22 -8 0 -14 -10 -14 -22 l0
-22 -16 22 c-13 18 -19 21 -30 11 -8 -6 -14 -21 -14 -33 -1 -20 -1 -20 -15 -2
-18 23 -45 14 -45 -15 0 -18 -2 -19 -15 -9 -19 16 -47 5 -43 -16 2 -9 -3 -19
-9 -21 -7 -3 -13 0 -13 6 0 15 -40 14 -40 -1 -1 -8 -7 -5 -15 6 -18 23 -45 14
-45 -15 l0 -21 -18 22 c-22 28 -42 19 -43 -18 0 -27 0 -27 -10 -4 -13 33 -43
25 -47 -13 l-4 -29 -17 23 c-23 30 -41 20 -41 -21 0 -29 -1 -30 -18 -15 -35
32 -53 17 -31 -25 16 -29 -5 -47 -23 -19 -15 24 -48 28 -48 7 0 -8 4 -17 10
-21 5 -3 7 -12 4 -20 -5 -11 -11 -12 -24 -5 -46 25 -67 -3 -32 -44 17 -20 16
-20 -19 1 -23 13 -41 18 -50 12 -19 -11 -3 -37 41 -66 39 -27 37 -28 -20 -8
-53 19 -60 19 -60 0 0 -9 14 -24 32 -33 18 -9 45 -30 62 -45 20 -20 37 -27 52
-24 13 2 25 -1 27 -7 2 -7 36 -11 88 -11 75 0 87 -3 111 -25 14 -14 48 -29 75
-35 36 -8 49 -15 51 -30 4 -29 -41 -51 -118 -58 -36 -4 -111 -21 -167 -39
l-101 -33 -12 40 c-28 94 -55 129 -145 191 -182 126 -210 148 -232 194 -27 52
-30 119 -7 163 8 18 37 49 62 70 26 21 68 55 94 76 49 41 130 76 208 91 25 5
53 12 62 15 10 4 55 2 100 -5 95 -14 142 -6 202 35 30 20 49 25 99 25 68 0
202 21 257 41 48 17 103 56 88 62 -7 3 23 2 68 -1 91 -5 161 8 242 45 76 36
108 73 61 73 -11 0 -18 4 -14 9 3 5 0 13 -6 16 -5 4 -8 13 -5 20 3 8 -1 19 -9
25 -10 9 -22 6 -52 -13 -80 -50 -89 -51 -40 -2 26 27 47 52 47 57 0 22 -33 17
-74 -11 -59 -41 -64 -39 -27 8 35 44 38 59 15 68 -9 3 -27 -6 -45 -23 l-31
-29 18 37 c28 61 -9 99 -40 41 l-16 -28 3 35 c2 29 -2 36 -20 38 -15 2 -23 -4
-28 -19 -10 -31 -25 -3 -18 33 5 24 2 28 -16 28 -12 0 -21 6 -21 14 0 21 -20
30 -33 17 -17 -17 -37 -13 -37 8 0 29 -21 38 -36 15 -7 -10 -20 -28 -29 -39
-14 -19 -15 -18 -5 9 6 16 9 35 6 43 -8 19 -33 16 -41 -4 -6 -16 -8 -15 -16 5
-12 31 -37 28 -42 -5 -3 -23 -4 -21 -6 9 -1 42 -13 55 -31 33 -16 -19 -46 -19
-54 0 -8 23 -25 18 -38 -10 -10 -22 -13 -23 -20 -10 -16 27 -38 17 -39 -17 -1
-23 -3 -26 -6 -11 -5 26 -28 47 -43 38 -5 -3 -10 -23 -11 -43 l0 -37 -12 35
c-9 27 -17 35 -37 35 -21 0 -26 -6 -30 -35 l-5 -34 -18 27 c-19 29 -47 36 -47
11 0 -8 -4 -12 -10 -9 -5 3 -22 -5 -37 -19 -25 -24 -26 -26 -10 -50 10 -15 13
-27 7 -31 -6 -3 -10 -16 -11 -28 0 -12 -6 -1 -13 26 -15 56 -20 62 -42 53 -14
-5 -16 -15 -10 -54 l6 -47 -22 38 c-41 69 -70 27 -33 -47 22 -44 12 -42 -20 4
-38 55 -84 54 -54 -1 5 -11 9 -27 7 -35 -3 -12 -9 -11 -38 4 -67 36 -82 2 -22
-48 l37 -32 -48 27 c-35 20 -51 25 -59 17 -16 -16 14 -57 60 -82 20 -12 28
-18 17 -14 -11 3 -28 9 -37 11 -10 3 -18 8 -18 12 0 3 -16 7 -36 9 -29 2 -35
-1 -32 -15 2 -10 19 -26 38 -35 100 -50 129 -59 213 -65 l87 -6 12 -38 c15
-52 -7 -79 -66 -79 -23 0 -77 -11 -121 -25 -44 -14 -81 -25 -81 -25 -1 0 -4
19 -8 42 -10 61 -39 102 -117 164 -82 65 -88 86 -48 171 22 50 107 121 189
159 62 30 100 61 100 82 0 8 6 12 14 9 50 -19 89 -18 178 8 51 15 108 27 126
27 21 -1 32 3 30 10 -2 6 10 24 26 39 28 25 29 28 12 35 -11 4 -38 0 -64 -9
-25 -10 -47 -15 -50 -13 -2 3 7 8 22 12 14 3 24 10 21 14 -2 4 4 15 15 25 46
41 9 61 -45 24 -16 -11 -43 -27 -60 -36 l-30 -16 35 34 c19 19 40 33 46 31 17
-5 15 58 -1 65 -8 3 -22 -2 -31 -11 -20 -21 -37 -11 -24 14 5 10 10 23 10 29
0 17 -31 13 -53 -6 -19 -18 -20 -18 -3 14 21 41 20 45 -6 41 -12 -2 -28 -13
-34 -26 -18 -37 -22 -35 -11 8 14 50 -1 72 -33 52 -17 -11 -20 -10 -20 8 0 22
-31 41 -37 23 -2 -5 -11 -19 -19 -29 -14 -18 -15 -18 -5 2 9 19 6 26 -26 50
-33 25 -37 26 -48 10 -11 -15 -13 -15 -19 -1 -3 8 -9 14 -13 14 -4 -1 -17 2
-27 6 -14 6 -23 3 -33 -11 -13 -18 -14 -18 -19 4 -4 15 -14 22 -29 22 -23 0
-34 -15 -37 -53 0 -12 -4 -2 -7 23 -6 43 -25 62 -44 44z m220 -321 c-3 -10 -5
-4 -5 12 0 17 2 24 5 18 2 -7 2 -21 0 -30z m303 -83 c-8 -5 -19 -10 -25 -10
-5 0 -3 5 5 10 8 5 20 10 25 10 6 0 3 -5 -5 -10z m-712 -36 c-3 -3 13 -24 37
-47 l43 -43 -37 -11 c-20 -6 -45 -14 -56 -18 -14 -4 -13 -2 5 9 14 8 21 15 16
16 -5 0 -1 9 9 20 14 16 15 22 5 35 -9 10 -17 12 -30 5 -9 -5 -20 -7 -23 -4
-8 8 15 44 27 44 5 0 7 -3 4 -6z m262 -4 c0 -5 -5 -10 -11 -10 -5 0 -7 -4 -4
-10 3 -5 1 -10 -4 -10 -12 0 -15 23 -4 33 10 10 23 8 23 -3z m54 -15 c32 -13
35 -18 26 -35 -10 -18 -71 -70 -82 -70 -3 0 -9 11 -12 26 -5 17 -1 33 14 51
11 14 17 29 14 34 -7 12 -2 11 40 -6z m-168 -32 c3 -10 11 -28 17 -40 18 -39
3 -34 -43 12 l-44 45 32 0 c22 0 34 -6 38 -17z m261 -8 c-40 -36 -57 -32 -41
9 4 10 18 16 38 16 l31 -1 -28 -24z m-247 -105 c0 -5 -10 -21 -23 -37 -38 -46
-57 -81 -57 -103 0 -25 -14 -25 -108 -1 -82 22 -96 31 -110 70 -11 30 -22 24
118 63 19 5 53 22 75 37 l40 28 33 -25 c17 -13 32 -28 32 -32z m-370 -54 c0
-7 9 -25 21 -40 l20 -26 -48 0 c-51 1 -114 26 -121 49 -4 11 4 13 37 8 31 -4
44 -2 48 9 7 18 43 18 43 0z m-200 -31 c17 -20 -9 -21 -36 0 -19 14 -19 14 2
15 12 0 27 -7 34 -15z m2070 -189 c-28 -15 -99 -32 -88 -21 9 9 79 34 98 34 8
0 4 -6 -10 -13z m-1916 -67 c-17 -63 -24 -73 -24 -30 0 25 24 81 35 81 1 0 -4
-23 -11 -51z m1196 18 c0 -7 -6 -21 -13 -31 -11 -15 -17 -17 -35 -7 -12 6 -22
21 -22 31 0 16 7 20 35 20 22 0 35 -5 35 -13z m-115 -7 c3 -5 1 -10 -4 -10 -6
0 -11 5 -11 10 0 6 2 10 4 10 3 0 8 -4 11 -10z m210 -10 c-6 -19 -3 -20 67
-14 66 6 72 5 58 -9 -33 -34 -113 -67 -161 -67 -27 0 -49 3 -49 8 0 4 14 19
30 34 17 14 30 36 30 47 0 12 6 21 16 21 11 0 14 -6 9 -20z m-238 4 c-3 -3
-12 -4 -19 -1 -8 3 -5 6 6 6 11 1 17 -2 13 -5z m-15 -24 c47 0 108 -22 108
-39 0 -30 -80 -61 -158 -61 -55 0 -55 0 -36 21 12 14 18 33 17 61 -2 31 1 38
9 30 7 -7 34 -12 60 -12z m477 -26 c-20 -21 -83 -39 -101 -28 -12 7 10 34 37
45 11 4 35 7 52 6 l33 -1 -21 -22z m-2029 -139 c-7 -8 -16 -12 -21 -9 -13 8
-1 24 18 24 13 0 13 -3 3 -15z m64 -13 c2 -4 -4 -8 -15 -8 -10 0 -19 4 -19 8
0 4 6 8 14 8 8 0 17 -4 20 -8z m201 -2 c-3 -5 0 -10 9 -10 8 0 16 5 18 10 2 7
11 5 23 -4 19 -14 17 -15 -24 -16 -43 0 -44 0 -26 -20 10 -11 23 -20 30 -20 7
0 22 -9 34 -19 23 -20 21 -41 -3 -41 -7 0 -30 -11 -51 -25 -20 -15 -40 -23
-43 -20 -3 3 -6 21 -5 40 1 19 -3 35 -7 35 -4 0 -7 15 -6 33 1 22 9 37 26 49
29 20 34 22 25 8z m-135 -27 c0 -5 -14 -16 -30 -25 -42 -24 -37 -45 14 -70 38
-18 66 -51 66 -76 0 -5 -137 0 -192 7 -4 1 -16 11 -27 23 -14 14 -18 25 -11
33 5 7 6 16 2 20 -4 5 1 5 11 2 9 -4 17 -2 17 5 0 7 4 7 14 -1 9 -7 17 -8 20
-2 3 5 0 12 -6 14 -7 3 -1 6 13 6 19 1 31 10 45 36 13 24 26 35 41 35 13 0 23
-3 23 -7z m30 -54 c0 -21 -7 -23 -29 -10 -12 8 -12 12 -2 25 16 19 31 12 31
-15z m290 -19 c-6 -11 -20 -24 -31 -30 -14 -8 -17 -15 -11 -23 18 -22 25 -77
10 -77 -10 0 -9 -3 2 -10 11 -7 -3 -10 -46 -10 -51 0 -64 4 -83 24 l-23 24 24
15 c12 9 36 19 52 23 29 7 84 60 79 76 -2 4 6 8 17 8 18 0 19 -3 10 -20z
m1647 -112 c-3 -8 -6 -5 -6 6 -1 11 2 17 5 13 3 -3 4 -12 1 -19z m224 -115
c-12 -20 -14 -14 -5 12 4 9 9 14 11 11 3 -2 0 -13 -6 -23z m-346 -90 c-18 -17
-18 -17 -6 0 11 14 11 20 0 35 -12 16 -12 16 6 0 19 -18 19 -18 0 -35z m440
-113 c-3 -5 -14 -10 -23 -9 -14 0 -13 2 3 9 27 11 27 11 20 0z m-2215 -29 c0
-5 -9 -19 -21 -32 l-20 -24 17 33 c19 33 24 38 24 23z m1875 -40 c-4 -14 1
-25 20 -37 14 -9 25 -20 25 -24 0 -5 -19 -23 -42 -41 -24 -19 -37 -26 -29 -16
21 26 23 69 4 89 -18 20 -11 48 12 48 12 0 15 -6 10 -19z m-286 -24 c13 4 13
3 -1 -7 -19 -12 -58 2 -58 21 0 6 10 3 21 -5 12 -8 29 -12 38 -9z m106 13 c3
-5 -1 -10 -9 -10 -9 0 -16 5 -16 10 0 6 4 10 9 10 6 0 13 -4 16 -10z m395 6
c0 -2 -7 -7 -16 -10 -8 -3 -12 -2 -9 4 6 10 25 14 25 6z m-625 -16 c3 -5 -1
-10 -9 -10 -9 0 -16 5 -16 10 0 6 4 10 9 10 6 0 13 -4 16 -10z m732 -22 c5 13
23 7 23 -7 0 -5 -17 -20 -38 -34 -31 -22 -55 -28 -130 -35 -51 -4 -92 -4 -92
0 0 4 6 8 13 8 14 0 42 12 130 55 41 20 52 22 69 12 16 -9 22 -9 25 1z m354
-6 c-7 -2 -18 1 -23 6 -8 8 -4 9 13 5 13 -4 18 -8 10 -11z m-871 -29 c16 -7
26 -10 38 -12 4 -1 0 -6 -8 -11 -10 -6 -3 -8 22 -3 27 4 45 0 68 -14 l31 -20
-51 -22 c-40 -17 -71 -22 -132 -22 -43 0 -83 3 -88 6 -6 3 2 16 16 28 16 14
26 33 26 53 1 28 3 30 32 26 17 -2 38 -6 46 -9z m669 8 c11 -7 9 -12 -11 -25
-32 -21 -88 -32 -88 -17 0 35 65 63 99 42z m-2489 -5 c0 -2 -8 -10 -17 -17
-16 -13 -17 -12 -4 4 13 16 21 21 21 13z m2649 -22 c-27 -27 -93 -42 -126 -29
-14 5 -4 12 42 30 33 13 71 24 85 24 l25 1 -26 -26z m101 -9 c-14 -8 -36 -14
-50 -14 l-25 0 25 14 c14 8 36 14 50 14 l25 0 -25 -14z m-2870 -142 c0 -20 -3
-24 -11 -16 -7 7 -9 19 -6 27 10 24 17 19 17 -11z m570 -33 c-6 -11 -13 -20
-16 -20 -2 0 0 9 6 20 6 11 13 20 16 20 2 0 0 -9 -6 -20z m-799 -7 c13 -17 13
-17 -6 -3 -11 8 -22 16 -24 17 -2 2 0 3 6 3 6 0 17 -8 24 -17z m26 -5 c-3 -8
-6 -5 -6 6 -1 11 2 17 5 13 3 -3 4 -12 1 -19z m-262 -84 c-23 -36 -30 -23 -9
18 10 18 19 27 22 20 2 -7 -4 -24 -13 -38z m471 18 c-17 -16 -18 -16 -5 5 7
12 15 20 18 17 3 -2 -3 -12 -13 -22z m-396 3 c-7 -8 -17 -15 -23 -15 -6 0 -2
7 9 15 25 19 30 19 14 0z m1045 5 c-27 -12 -43 -12 -25 0 8 5 22 9 30 9 10 0
8 -3 -5 -9z m-1005 -24 c0 -2 -8 -10 -17 -17 -16 -13 -17 -12 -4 4 13 16 21
21 21 13z m434 -12 c5 -14 4 -15 -9 -4 -17 14 -19 20 -6 20 5 0 12 -7 15 -16z
m-179 -82 c7 -32 6 -33 -14 -23 -23 13 -24 15 -15 49 8 29 20 18 29 -26z m250
34 c16 -16 10 -26 -16 -26 -21 0 -33 15 -24 30 9 14 24 12 40 -4z m-325 -17
c10 -18 9 -20 -7 -17 -10 2 -19 11 -21 21 -5 24 15 21 28 -4z m505 13 c-37
-31 -86 -62 -98 -62 -14 0 -15 13 -2 55 1 6 27 11 56 13 29 1 49 -2 44 -6z
m155 -2 c0 -11 -56 -37 -90 -43 l-35 -6 33 28 c21 18 43 28 62 27 17 -1 30 -3
30 -6z m-450 -50 c0 -5 -2 -10 -4 -10 -3 0 -8 5 -11 10 -3 6 -1 10 4 10 6 0
11 -4 11 -10z m-257 -24 c18 -8 40 -16 49 -19 9 -3 18 -16 20 -29 2 -13 13
-27 26 -33 13 -5 25 -20 29 -33 3 -12 12 -26 21 -31 11 -6 -4 -9 -44 -8 -32 0
-82 -3 -110 -7 -84 -14 -174 31 -174 87 0 14 -6 28 -12 30 -12 5 -3 6 72 11
14 1 36 12 48 24 26 26 33 27 75 8z m277 0 c0 -8 -63 -36 -68 -31 -3 2 10 11
29 19 39 17 39 17 39 12z m60 -20 c22 -9 28 -15 17 -19 -18 -7 -61 -93 -52
-107 10 -16 -12 -12 -30 6 -8 9 -22 29 -31 45 -12 23 -12 30 -2 33 40 12 48
16 47 23 -6 36 4 39 51 19z m-815 -76 c3 0 3 5 0 10 -3 6 -1 10 5 10 10 0 26
-28 19 -34 -8 -7 -69 15 -69 25 0 6 7 6 19 -1 11 -5 22 -10 26 -10z m52 -61
c26 -5 54 -16 62 -24 14 -13 11 -15 -24 -14 -125 2 -194 27 -182 63 7 22 52
23 74 3 12 -11 43 -23 70 -28z m207 5 c36 -21 38 -24 16 -24 -30 0 -110 35
-110 48 0 14 49 2 94 -24z m-449 -26 l30 -11 -41 -9 c-36 -7 -48 -5 -90 18
-31 17 -39 24 -23 20 19 -4 29 -1 33 9 5 13 9 13 33 0 15 -9 42 -20 58 -27z
m-197 15 c20 -9 40 -16 43 -15 3 0 6 -6 6 -14 0 -10 -7 -12 -21 -8 -50 13 -76
27 -76 40 0 18 3 18 48 -3z m-108 -13 c0 -5 -2 -10 -4 -10 -3 0 -8 5 -11 10
-3 6 -1 10 4 10 6 0 11 -4 11 -10z m190 -20 c0 -5 -4 -10 -10 -10 -5 0 -10 5
-10 10 0 6 5 10 10 10 6 0 10 -4 10 -10z m2637 -47 c-3 -10 -5 -4 -5 12 0 17
2 24 5 18 2 -7 2 -21 0 -30z m570 -5 c-3 -7 -5 -2 -5 12 0 14 2 19 5 13 2 -7
2 -19 0 -25z m250 -60 c-3 -8 -6 -5 -6 6 -1 11 2 17 5 13 3 -3 4 -12 1 -19z
m-1126 -25 c13 -15 12 -15 -8 -4 -24 12 -29 21 -14 21 5 0 15 -7 22 -17z m405
-44 c-18 -41 -21 -26 -4 22 6 18 13 29 15 23 2 -6 -3 -26 -11 -45z m672 4 c1
-34 -1 -44 -8 -33 -12 19 -13 80 -1 80 5 0 9 -21 9 -47z m118 -4 l-14 -44 -1
43 c-1 26 3 41 9 37 6 -3 10 -1 10 6 0 7 2 10 5 7 3 -2 -1 -24 -9 -49z m254
36 c14 -17 5 -36 -14 -29 -7 3 -19 -2 -26 -11 -7 -8 -17 -15 -23 -15 -5 0 -3
8 6 18 22 24 21 33 0 26 -10 -3 -7 2 7 10 31 19 35 19 50 1z m-333 -67 c-2
-13 -4 -3 -4 22 0 25 2 35 4 23 2 -13 2 -33 0 -45z m363 -1 c-28 -15 -70 -27
-70 -21 0 8 56 33 75 34 17 0 16 -2 -5 -13z m-446 -33 c10 -25 -1 -29 -14 -5
-6 12 -7 21 -1 21 5 0 12 -7 15 -16z m-39 -34 c3 -6 -1 -7 -9 -4 -18 7 -21 14
-7 14 6 0 13 -4 16 -10z m-622 -27 c-7 -2 -19 -2 -25 0 -7 3 -2 5 12 5 14 0
19 -2 13 -5z m407 -19 c0 -16 -16 -19 -25 -4 -8 13 4 32 16 25 5 -4 9 -13 9
-21z m-310 -9 c0 -8 -2 -15 -4 -15 -2 0 -6 7 -10 15 -3 8 -1 15 4 15 6 0 10
-7 10 -15z m-60 -5 c8 -5 12 -11 9 -15 -8 -8 -69 6 -69 16 0 12 41 11 60 -1z
m-125 -10 c-3 -5 -12 -10 -20 -10 -8 0 -17 5 -20 10 -4 6 5 10 20 10 15 0 24
-4 20 -10z m425 -20 c0 -5 -4 -10 -10 -10 -5 0 -10 5 -10 10 0 6 5 10 10 10 6
0 10 -4 10 -10z m70 0 c0 -5 -4 -10 -9 -10 -6 0 -13 5 -16 10 -3 6 1 10 9 10
9 0 16 -4 16 -10z m427 -6 c2 -6 -3 -11 -12 -11 -8 0 -15 7 -15 15 0 15 22 12
27 -4z m-234 -25 c13 13 47 -15 47 -39 0 -9 -16 -31 -35 -50 -61 -59 -279 -98
-375 -66 -36 12 -40 15 -18 15 35 1 85 44 93 80 7 32 50 49 59 25 3 -8 13 -14
21 -14 9 0 14 3 12 8 -3 4 35 7 84 7 90 1 117 9 86 26 -9 6 -17 15 -17 20 0 6
7 3 16 -6 12 -11 20 -13 27 -6z m-287 -16 c-7 -7 -26 7 -26 19 0 6 6 6 15 -2
9 -7 13 -15 11 -17z m654 -1 c0 -5 15 -15 32 -24 l33 -15 -34 -30 c-41 -38
-117 -55 -222 -51 l-77 3 33 38 c34 40 76 57 145 61 20 2 44 8 55 14 24 14 35
15 35 4z m-3650 -10 c0 -5 -7 -17 -15 -28 -14 -18 -14 -17 -4 9 12 27 19 34
19 19z m3965 -28 c-11 -8 -41 -21 -66 -29 -26 -7 -59 -21 -72 -30 -14 -9 -38
-15 -54 -13 l-28 3 33 18 c19 10 39 16 46 14 7 -3 19 -1 27 4 11 7 10 9 -6 9
-50 1 59 36 120 39 20 0 20 0 0 -15z m-4698 -16 c-3 -8 -6 -5 -6 6 -1 11 2 17
5 13 3 -3 4 -12 1 -19z m4741 -23 c-6 -13 -24 -29 -41 -35 -37 -13 -57 -13
-37 0 13 9 13 10 0 11 -11 0 74 48 87 49 2 0 -2 -11 -9 -25z m208 6 c-7 -10
-76 -20 -76 -11 0 14 15 20 47 20 19 0 32 -4 29 -9z m109 -22 c-22 -10 -47
-18 -55 -18 -8 0 5 9 30 19 58 24 77 24 25 -1z m-122 -16 c-7 -2 -19 -2 -25 0
-7 3 -2 5 12 5 14 0 19 -2 13 -5z m-356 -9 c-3 -3 -12 -4 -19 -1 -8 3 -5 6 6
6 11 1 17 -2 13 -5z m-3928 -80 c-11 -13 -10 -19 1 -37 12 -21 12 -21 -6 -6
-10 9 -26 18 -34 21 -10 3 -6 9 15 20 39 21 40 21 24 2z m508 -81 c-2 -16 -4
-5 -4 22 0 28 2 40 4 28 2 -13 2 -35 0 -50z m-670 21 c-3 -3 -12 -4 -19 -1 -8
3 -5 6 6 6 11 1 17 -2 13 -5z m302 -34 c0 -10 -3 -8 -9 5 -12 27 -12 43 0 25
5 -8 9 -22 9 -30z m1381 15 c13 -14 21 -25 18 -25 -2 0 -15 11 -28 25 -13 14
-21 25 -18 25 2 0 15 -11 28 -25z m-1650 -28 c0 -18 -2 -19 -10 -7 -13 20 -13
43 0 35 6 -3 10 -16 10 -28z m240 -47 c0 -13 -1 -13 -10 0 -5 8 -10 22 -10 30
0 13 1 13 10 0 5 -8 10 -22 10 -30z m-420 -10 c0 -5 -2 -10 -4 -10 -3 0 -8 5
-11 10 -3 6 -1 10 4 10 6 0 11 -4 11 -10z m300 -24 c0 -2 -8 -10 -17 -17 -16
-13 -17 -12 -4 4 13 16 21 21 21 13z m-525 -26 c3 -6 -1 -7 -9 -4 -11 4 -19
-2 -25 -17 -7 -17 -10 -19 -10 -7 -1 9 -9 22 -18 27 -15 8 -11 10 19 11 20 0
40 -4 43 -10z m275 -10 c18 -12 2 -12 -25 0 -13 6 -15 9 -5 9 8 0 22 -4 30 -9z
m50 -16 c0 -2 -7 -4 -15 -4 -8 0 -15 4 -15 10 0 5 7 7 15 4 8 -4 15 -8 15 -10z
m-483 -46 c-2 -13 -4 -5 -4 17 -1 22 1 32 4 23 2 -10 2 -28 0 -40z m958 14
c-3 -3 -11 0 -18 7 -9 10 -8 11 6 5 10 -3 15 -9 12 -12z m-628 -24 c8 -20 5
-27 -21 -48 -16 -14 -27 -19 -23 -12 5 6 4 12 -2 12 -11 0 19 69 30 70 3 0 10
-10 16 -22z m163 12 c11 -7 5 -8 -20 -4 -43 8 -51 14 -19 14 13 0 31 -5 39
-10z m220 -15 c0 -17 -36 -39 -50 -30 -6 4 -8 11 -4 16 3 5 10 7 15 4 5 -4 9
1 9 9 0 9 7 16 15 16 8 0 15 -7 15 -15z m383 -4 c-11 -42 -86 -88 -114 -70 -8
4 -16 3 -20 -3 -4 -6 -15 -8 -24 -4 -17 6 -17 8 -1 25 9 10 30 21 47 25 16 3
29 12 29 20 0 10 14 16 43 19 23 2 43 4 44 5 0 1 -1 -7 -4 -17z m-599 -39 c9
-7 16 -22 16 -33 0 -15 -5 -18 -24 -13 -16 4 -41 -4 -80 -26 -60 -34 -67 -33
-36 7 11 14 20 34 20 43 0 16 5 17 40 8 49 -13 61 -5 33 22 -12 10 -24 16 -27
13 -3 -4 -6 -2 -6 4 0 19 12 21 30 5 10 -9 26 -23 34 -30z m351 37 c-4 -6 2
-13 12 -15 19 -5 18 -8 -8 -34 -16 -15 -43 -33 -60 -39 -18 -6 -47 -22 -65
-36 l-33 -25 -15 22 c-14 20 -14 23 -1 31 8 4 19 6 24 3 5 -3 12 5 15 18 4 17
17 28 41 36 19 6 40 20 45 31 6 10 20 19 31 19 12 0 17 -4 14 -11z m415 -14
c-7 -8 -24 -15 -38 -15 -25 0 -25 1 -6 15 10 8 27 15 38 15 15 0 16 -3 6 -15z
m-1436 -31 c3 -8 2 -12 -4 -9 -6 3 -10 10 -10 16 0 14 7 11 14 -7z m793 -8 c0
-8 -6 -12 -15 -9 -11 5 -11 7 0 14 7 5 13 9 14 9 0 0 1 -6 1 -14z m-286 -39
c-10 -9 -11 -8 -5 6 3 10 9 15 12 12 3 -3 0 -11 -7 -18z m149 -68 c-52 -8 -61
-4 -35 15 15 11 26 11 49 3 l31 -11 -45 -7z m95 -44 c25 -9 49 -14 53 -11 5 3
14 -10 20 -28 15 -40 40 -65 116 -110 53 -32 56 -36 35 -41 -33 -8 -208 -11
-239 -3 -14 3 -44 9 -68 13 -37 7 -43 11 -38 28 3 12 -4 32 -15 49 -11 15 -17
28 -12 28 4 0 24 10 43 22 l35 22 -30 7 -30 7 28 1 c15 0 26 4 26 9 -5 27 11
28 76 7z m-867 -2 c-10 -2 -18 -9 -18 -14 0 -5 -5 -9 -11 -9 -8 0 -8 5 1 15 7
8 20 14 29 14 13 -1 13 -2 -1 -6z m457 -3 c-3 -5 -18 -10 -33 -9 l-27 1 25 8
c35 11 42 11 35 0z m2705 -36 c0 -3 -13 4 -30 16 -16 12 -30 24 -30 26 0 3 14
-4 30 -16 17 -12 30 -24 30 -26z m-2458 3 c-10 -12 -62 -22 -62 -12 0 3 36 16
69 24 2 1 -1 -5 -7 -12z m3765 -24 c-3 -10 -5 -4 -5 12 0 17 2 24 5 18 2 -7 2
-21 0 -30z m-4102 -15 c14 -6 25 -15 25 -20 0 -13 38 -9 42 4 3 7 7 5 11 -6 6
-15 1 -17 -41 -14 -28 2 -46 8 -45 14 1 7 -5 11 -14 10 -9 0 -18 5 -20 12 -6
15 9 15 42 0z m-121 -24 c3 -8 2 -12 -4 -9 -6 3 -10 10 -10 16 0 14 7 11 14
-7z m-64 -19 c13 -14 33 -25 44 -25 41 0 47 -15 15 -34 -25 -15 -45 -17 -99
-13 -121 10 -175 59 -80 72 27 4 52 11 56 16 10 17 40 9 64 -16z m-284 -2
c-11 -11 -45 -13 -51 -3 -4 6 7 10 26 10 18 0 29 -3 25 -7z m4514 -48 c0 -5
-5 -3 -10 5 -5 8 -10 20 -10 25 0 6 5 3 10 -5 5 -8 10 -19 10 -25z m-4762 7
c2 -7 -2 -10 -12 -6 -9 3 -16 11 -16 16 0 13 23 5 28 -10z m181 1 c22 -18 22
-18 -11 -18 -18 1 -40 -3 -49 -8 -10 -6 -26 -4 -50 8 -31 16 -32 19 -14 26 37
14 102 10 124 -8z m5224 -61 c-5 -12 -7 -12 -15 2 -11 20 1 44 12 25 5 -6 6
-19 3 -27z m-73 -23 c-11 -26 -15 -28 -22 -14 -11 19 -2 49 12 40 5 -3 10 -1
10 6 0 7 3 9 6 6 4 -4 1 -20 -6 -38z m-77 8 c6 4 8 0 4 -10 -3 -9 -3 -17 1
-19 4 -2 18 -20 30 -41 12 -21 17 -35 11 -31 -15 9 -69 95 -68 108 0 6 3 5 6
-2 2 -6 10 -9 16 -5z m364 -23 c-3 -3 -12 -4 -19 -1 -8 3 -5 6 6 6 11 1 17 -2
13 -5z m-1140 -20 c-3 -3 -12 -4 -19 -1 -8 3 -5 6 6 6 11 1 17 -2 13 -5z m663
-40 c0 -2 -9 -4 -20 -4 -11 0 -20 4 -20 9 0 5 9 7 20 4 11 -3 20 -7 20 -9z
m-1183 -46 c-3 -8 -6 -5 -6 6 -1 11 2 17 5 13 3 -3 4 -12 1 -19z m1091 -14 c6
-2 12 -13 12 -24 0 -14 7 -20 21 -20 33 0 59 -19 59 -43 0 -37 -4 -39 -125
-87 -48 -19 -82 -26 -114 -20 l-34 5 42 23 c22 13 41 20 41 15 0 -4 7 1 15 11
9 12 15 15 15 7 0 -11 3 -11 16 0 9 8 14 22 11 37 -3 17 1 26 16 31 20 7 20 8
-4 24 -13 9 -27 17 -31 17 -3 0 -19 5 -35 11 l-28 11 24 12 c17 10 32 11 55 3
17 -5 37 -11 44 -13z m-268 6 c0 -5 -4 -10 -9 -10 -6 0 -13 5 -16 10 -3 6 1
10 9 10 9 0 16 -4 16 -10z m108 -8 c3 -9 -2 -13 -14 -10 -9 1 -19 9 -22 16 -3
9 2 13 14 10 9 -1 19 -9 22 -16z m522 -13 c0 -6 -4 -7 -10 -4 -5 3 -10 11 -10
16 0 6 5 7 10 4 6 -3 10 -11 10 -16z m267 -25 c-6 -6 -47 9 -47 17 0 5 11 3
25 -3 14 -6 24 -13 22 -14z m-131 -44 c31 -34 39 -38 52 -28 13 11 14 10 10
-2 -2 -8 -29 -23 -59 -33 -50 -18 -62 -18 -157 -6 -56 7 -101 17 -99 22 1 4
32 19 67 31 36 13 83 31 105 39 22 9 41 16 43 17 1 0 18 -18 38 -40z m-2785
13 c13 -16 12 -17 -3 -4 -17 13 -22 21 -14 21 2 0 10 -8 17 -17z m2227 -18 c6
-14 10 -25 9 -25 -2 0 -13 11 -25 25 -15 17 -17 25 -9 25 8 0 19 -11 25 -25z
m1269 -12 c-16 -16 -17 -16 -17 0 0 10 5 15 10 12 6 -3 10 -1 10 6 0 7 3 9 7
5 4 -3 -1 -14 -10 -23z m-497 -14 c24 -7 24 -7 -5 -8 -16 0 -41 6 -55 14 l-25
15 30 -7 c17 -3 41 -10 55 -14z m81 -31 c-35 -37 -163 -74 -220 -63 -18 4 -30
10 -25 14 22 21 130 51 179 51 32 0 55 4 55 11 0 5 -4 7 -10 4 -5 -3 -10 -2
-10 4 0 14 23 19 36 7 8 -7 6 -15 -5 -28z m135 -23 c-6 -18 -1 -19 25 -5 13 8
19 7 19 0 0 -19 -65 -40 -104 -33 -35 6 -36 6 -16 20 17 12 49 25 79 32 2 1 1
-6 -3 -14z m-3065 -22 c13 -16 12 -17 -3 -4 -17 13 -22 21 -14 21 2 0 10 -8
17 -17z m3229 -1 c0 -11 -70 -41 -92 -40 -22 2 -23 14 -3 22 8 3 15 1 15 -4 0
-5 7 -7 16 -3 12 4 13 8 3 13 -8 6 -6 9 7 13 32 8 54 7 54 -1z m84 -21 c7 -11
-17 -21 -47 -21 -22 1 -22 1 -3 15 22 17 42 19 50 6z m-3239 -41 c10 -11 16
-20 13 -20 -3 0 -13 9 -23 20 -10 11 -16 20 -13 20 3 0 13 -9 23 -20z m-475
-745 c0 -2 -10 -9 -22 -15 -22 -11 -22 -10 -4 4 21 17 26 19 26 11z m-423
-237 c-2 -13 -4 -5 -4 17 -1 22 1 32 4 23 2 -10 2 -28 0 -40z m534 -305 c8 -9
-5 -2 -28 17 -24 18 -43 35 -43 37 0 7 56 -35 71 -54z m614 -71 c-3 -3 -11 0
-18 7 -9 10 -8 11 6 5 10 -3 15 -9 12 -12z m152 -14 c-3 -8 -6 -5 -6 6 -1 11
2 17 5 13 3 -3 4 -12 1 -19z m-1619 -18 c-12 -16 -25 -30 -30 -30 -4 0 4 14
19 30 14 17 28 30 30 30 2 0 -6 -13 -19 -30z m1022 -30 l45 -42 -55 43 c-69
54 -80 64 -55 51 11 -6 41 -29 65 -52z m318 6 c9 -11 -4 -5 -30 14 -27 18 -48
35 -48 37 0 8 62 -33 78 -51z m329 -2 c-3 -3 -12 -4 -19 -1 -8 3 -5 6 6 6 11
1 17 -2 13 -5z m-966 -21 c13 -16 12 -17 -3 -4 -17 13 -22 21 -14 21 2 0 10
-8 17 -17z m-488 -80 c-15 -21 -28 -40 -30 -42 -2 -2 -5 -2 -8 0 -5 5 53 79
61 79 3 0 -7 -17 -23 -37z m-448 6 c-22 -10 -47 -18 -55 -18 -8 0 5 8 30 19
59 24 76 24 25 -1z m2194 -5 c14 -12 -19 -1 -35 12 -18 14 -18 14 6 3 14 -6
27 -13 29 -15z m-720 -88 c14 -14 23 -27 20 -28 -2 -2 -35 28 -74 66 -56 56
-60 61 -20 29 28 -23 61 -53 74 -67z m1302 87 c13 -15 12 -15 -11 -3 -34 17
-36 20 -18 20 9 0 22 -7 29 -17z m-3403 0 c-10 -2 -26 -2 -35 0 -10 3 -2 5 17
5 19 0 27 -2 18 -5z m2420 -67 l37 -40 -45 39 c-25 22 -56 48 -70 58 -24 17
-24 17 8 0 18 -10 49 -35 70 -57z m1050 67 c-10 -2 -26 -2 -35 0 -10 3 -2 5
17 5 19 0 27 -2 18 -5z m-587 -30 c13 -16 12 -17 -3 -4 -17 13 -22 21 -14 21
2 0 10 -8 17 -17z m-3088 -20 c-7 -2 -19 -2 -25 0 -7 3 -2 5 12 5 14 0 19 -2
13 -5z m4234 1 c-3 -3 -12 -4 -19 -1 -8 3 -5 6 6 6 11 1 17 -2 13 -5z m-180
-20 c-3 -3 -12 -4 -19 -1 -8 3 -5 6 6 6 11 1 17 -2 13 -5z m306 -1 c-7 -2 -19
-2 -25 0 -7 3 -2 5 12 5 14 0 19 -2 13 -5z m-268 -23 c10 -11 16 -20 13 -20
-3 0 -13 9 -23 20 -10 11 -16 20 -13 20 3 0 13 -9 23 -20z m312 14 c-3 -3 -12
-4 -19 -1 -8 3 -5 6 6 6 11 1 17 -2 13 -5z m-2780 -20 c-3 -3 -12 -4 -19 -1
-8 3 -5 6 6 6 11 1 17 -2 13 -5z m2899 -18 c16 -12 17 -17 6 -28 -11 -11 -12
-10 -7 3 4 10 -2 19 -17 27 -13 6 -18 11 -12 11 5 1 19 -5 30 -13z m-4101 -6
c-11 -4 -40 -8 -65 -7 -34 0 -39 1 -20 7 35 9 111 10 85 0z m2110 -20 c3 -5 1
-10 -4 -10 -6 0 -11 5 -11 10 0 6 2 10 4 10 3 0 8 -4 11 -10z m885 0 c8 -5 11
-10 5 -10 -5 0 -17 5 -25 10 -8 5 -10 10 -5 10 6 0 17 -5 25 -10z m-496 -36
c7 -19 2 -18 -19 6 -16 17 -16 20 -3 15 9 -4 19 -13 22 -21z m-2298 -10 c10
-8 13 -12 6 -9 -8 4 -26 11 -40 15 -22 7 -23 8 -6 9 11 1 29 -6 40 -15z m338
-5 c15 -12 25 -23 22 -26 -2 -3 -14 5 -25 16 -26 26 -67 27 -108 1 -18 -11
-33 -17 -33 -15 0 12 67 45 91 45 15 0 38 -10 53 -21z m332 6 c10 -8 15 -14 9
-14 -5 0 -19 6 -29 14 -11 8 -15 15 -10 15 6 0 19 -7 30 -15z m1839 -5 c14 -7
8 -8 -20 -3 -22 3 -42 7 -44 9 -9 8 45 2 64 -6z m-1151 -9 c3 -4 -6 -6 -19 -3
-14 2 -25 6 -25 8 0 8 39 4 44 -5z m-2326 -8 c-10 -2 -26 -2 -35 0 -10 3 -2 5
17 5 19 0 27 -2 18 -5z m3579 1 c-3 -3 -12 -4 -19 -1 -8 3 -5 6 6 6 11 1 17
-2 13 -5z m-3514 -11 c-7 -2 -21 -2 -30 0 -10 3 -4 5 12 5 17 0 24 -2 18 -5z
m957 3 c0 -2 -11 -6 -25 -8 -13 -3 -22 -1 -19 3 5 9 44 13 44 5z m3543 -3 c-7
-2 -19 -2 -25 0 -7 3 -2 5 12 5 14 0 19 -2 13 -5z m-70 -10 c-7 -2 -21 -2 -30
0 -10 3 -4 5 12 5 17 0 24 -2 18 -5z m-2828 -13 c3 -6 -4 -10 -17 -10 -18 0
-20 2 -8 10 19 12 18 12 25 0z m1088 3 c-7 -2 -19 -2 -25 0 -7 3 -2 5 12 5 14
0 19 -2 13 -5z m280 0 c-7 -2 -21 -2 -30 0 -10 3 -4 5 12 5 17 0 24 -2 18 -5z
m1370 0 c-7 -2 -19 -2 -25 0 -7 3 -2 5 12 5 14 0 19 -2 13 -5z m-4050 -10 c-7
-2 -21 -2 -30 0 -10 3 -4 5 12 5 17 0 24 -2 18 -5z m1047 3 c0 -2 -8 -10 -17
-17 -16 -13 -17 -12 -4 4 13 16 21 21 21 13z m702 -8 c-5 -7 -12 -22 -15 -33
-5 -20 -5 -20 -6 1 0 11 4 25 11 32 16 16 23 15 10 0z m2211 5 c-7 -2 -21 -2
-30 0 -10 3 -4 5 12 5 17 0 24 -2 18 -5z m-3850 -10 c-13 -2 -33 -2 -45 0 -13
2 -3 4 22 4 25 0 35 -2 23 -4z m1250 0 c-7 -2 -19 -2 -25 0 -7 3 -2 5 12 5 14
0 19 -2 13 -5z m-1120 -10 c-13 -2 -33 -2 -45 0 -13 2 -3 4 22 4 25 0 35 -2
23 -4z m3440 0 c-7 -2 -21 -2 -30 0 -10 3 -4 5 12 5 17 0 24 -2 18 -5z m-3080
-20 c-13 -2 -35 -2 -50 0 -16 2 -5 4 22 4 28 0 40 -2 28 -4z m342 -3 c3 -5 1
-10 -4 -10 -6 0 -11 5 -11 10 0 6 2 10 4 10 3 0 8 -4 11 -10z m-112 -7 c-13
-2 -35 -2 -50 0 -16 2 -5 4 22 4 28 0 40 -2 28 -4z m190 0 c-7 -2 -21 -2 -30
0 -10 3 -4 5 12 5 17 0 24 -2 18 -5z m2010 0 c-13 -2 -33 -2 -45 0 -13 2 -3 4
22 4 25 0 35 -2 23 -4z m54 1 c-3 -3 -12 -4 -19 -1 -8 3 -5 6 6 6 11 1 17 -2
13 -5z m-1959 -11 c-16 -2 -40 -2 -55 0 -16 2 -3 4 27 4 30 0 43 -2 28 -4z
m150 0 c-16 -2 -40 -2 -55 0 -16 2 -3 4 27 4 30 0 43 -2 28 -4z m1455 0 c-13
-2 -35 -2 -50 0 -16 2 -5 4 22 4 28 0 40 -2 28 -4z m-1015 -10 c-21 -2 -57 -2
-80 0 -24 2 -7 4 37 4 44 0 63 -2 43 -4z m2835 -93 c-13 -5 -46 -12 -75 -14
l-53 -5 55 13 c30 8 64 14 75 14 18 1 18 0 -2 -8z m-5150 -7 c-7 -2 -19 -2
-25 0 -7 3 -2 5 12 5 14 0 19 -2 13 -5z m108 -13 c142 -27 700 -69 1194 -90
453 -19 1485 -24 2050 -9 292 8 583 14 648 14 64 0 117 4 117 9 0 5 39 6 91 3
59 -5 88 -3 84 3 -4 6 20 11 62 12 159 5 194 8 313 22 69 9 139 15 155 14 l30
-1 -30 -4 c-16 -3 -32 -9 -35 -13 -7 -11 -429 -45 -539 -43 -55 1 -79 -2 -70
-8 9 -6 -36 -7 -120 -3 -79 4 -132 3 -128 -2 3 -5 -49 -8 -121 -8 -81 1 -111
-1 -82 -5 25 -4 -348 -8 -829 -9 -480 -2 -878 -5 -883 -8 -12 -8 -708 7 -704
15 2 3 -93 7 -212 9 -119 1 -218 6 -221 10 -4 4 -58 8 -121 10 -107 2 -374 25
-430 37 -62 13 -90 16 -160 20 -41 2 -91 10 -110 19 -41 18 -24 20 51 6z
m4892 -7 c-7 -2 -21 -2 -30 0 -10 3 -4 5 12 5 17 0 24 -2 18 -5z m-4619 -704
c-5 -8 1 -10 20 -7 14 3 26 1 26 -3 0 -11 -12 -11 -62 -3 -41 7 -42 24 -2 24
16 0 23 -4 18 -11z m4341 -9 c-11 -5 -31 -8 -45 -8 -23 0 -22 1 5 8 42 11 65
11 40 0z m-4242 -17 c-7 -2 -21 -2 -30 0 -10 3 -4 5 12 5 17 0 24 -2 18 -5z
m92 -3 c-11 -5 -33 -8 -50 -8 -29 1 -29 1 5 8 49 10 69 10 45 0z m3982 4 c-3
-3 -12 -4 -19 -1 -8 3 -5 6 6 6 11 1 17 -2 13 -5z m-3872 -9 c-23 -8 -85 -10
-85 -3 0 4 21 8 48 7 26 0 43 -2 37 -4z m3813 -2 c-10 -2 -28 -2 -40 0 -13 2
-5 4 17 4 22 1 32 -1 23 -4z m-3543 -23 c44 -5 159 -14 255 -20 230 -15 242
-17 130 -18 -91 -2 -481 21 -603 34 -39 5 -54 10 -45 16 13 9 124 4 263 -12z
m3328 3 c-7 -2 -21 -2 -30 0 -10 3 -4 5 12 5 17 0 24 -2 18 -5z m-98 -13 c-66
-11 -186 -19 -365 -24 l-145 -5 115 10 c190 15 352 26 400 26 l45 1 -50 -8z
M4918 5233 c6 -2 18 -2 25 0 6 3 1 5 -13 5 -14 0 -19 -2 -12 -5z M5841 3284
c0 -11 3 -14 6 -6 3 7 2 16 -1 19 -3 4 -6 -2 -5 -13z M1538 853 c7 -3 16 -2
19 1 4 3 -2 6 -13 5 -11 0 -14 -3 -6 -6z M1743 843 c9 -2 23 -2 30 0 6 3 -1 5
-18 5 -16 0 -22 -2 -12 -5z M1983 833 c9 -2 23 -2 30 0 6 3 -1 5 -18 5 -16 0
-22 -2 -12 -5z M2443 823 c9 -2 23 -2 30 0 6 3 -1 5 -18 5 -16 0 -22 -2 -12
-5z M4540 6839 c0 -5 5 -7 10 -4 6 3 10 8 10 11 0 2 -4 4 -10 4 -5 0 -10 -5
-10 -11z M4775 6640 c-3 -5 1 -10 9 -10 9 0 16 5 16 10 0 6 -4 10 -9 10 -6 0
-13 -4 -16 -10z M4220 6480 c-13 -8 -12 -10 3 -10 9 0 17 5 17 10 0 12 -1 12
-20 0z M4170 6400 c0 -5 7 -10 16 -10 8 0 12 5 9 10 -3 6 -10 10 -16 10 -5 0
-9 -4 -9 -10z M2555 6200 c-3 -5 -1 -10 4 -10 6 0 11 5 11 10 0 6 -2 10 -4 10
-3 0 -8 -4 -11 -10z M2280 6020 c0 -5 7 -10 16 -10 8 0 12 5 9 10 -3 6 -10 10
-16 10 -5 0 -9 -4 -9 -10z M3580 2655 c0 -8 7 -15 15 -15 8 0 15 4 15 9 0 5
-7 11 -15 15 -9 3 -15 0 -15 -9z M3599 2569 c-9 -17 -8 -25 5 -37 15 -15 16
-13 16 21 0 42 -5 46 -21 16z"/>
</g>
</svg>
